<svg width="12" height="7" viewBox="0 0 12 7" fill="none" xmlns="http://www.w3.org/2000/svg">
<path id="Union" fill-rule="evenodd" clip-rule="evenodd" d="M7.93886 6.11985C7.38292 6.66748 6.65142 7 5.85003 7C4.90432 7 4.05595 6.53694 3.47856 5.80376C3.24295 5.92954 2.97889 6 2.70002 6C1.70591 6 0.900024 5.10457 0.900024 4C0.900024 2.89543 1.70591 2 2.70002 2C2.79947 2 2.89702 2.00896 2.99208 2.02619C3.49274 0.829616 4.58419 0 5.85003 0C6.87722 0 7.78958 0.546295 8.3646 1.39167C8.52094 1.35347 8.68336 1.33333 8.85003 1.33333C10.0927 1.33333 11.1 2.45262 11.1 3.83333C11.1 5.21405 10.0927 6.33333 8.85003 6.33333C8.5257 6.33333 8.2174 6.25709 7.93886 6.11985Z" fill="url(#paint0_linear_7782_4)"/>
<defs>
<linearGradient id="paint0_linear_7782_4" x1="6.00002" y1="0" x2="6.00002" y2="7" gradientUnits="userSpaceOnUse">
<stop stop-color="#FFF48F"/>
<stop offset="1" stop-color="#FFFEEA" stop-opacity="0"/>
</linearGradient>
</defs>
</svg>
